<svg width="106" height="80" viewBox="0 0 106 80" fill="none" xmlns="http://www.w3.org/2000/svg">
<path d="M100.656 79.5816H4.86334C2.17866 79.5786 0.00305857 77.403 0 74.7183V4.8633C0.00305857 2.17862 2.17866 0.00301487 4.86334 0H100.656C103.341 0.00301487 105.516 2.17862 105.519 4.8633V74.7182C105.516 77.4029 103.341 79.5785 100.656 79.5816Z" fill="#E6E6E6"/>
<path d="M93.9151 79.4342H93.2578L83.1067 58.9847L82.812 58.3952L75.3048 43.2688L62.5835 17.6406L62.2917 17.0511L53.9003 0.1474H54.5605L62.949 17.0511L63.2438 17.6406L75.6408 42.6174L75.9326 43.2069L83.4368 58.3215L93.9151 79.4342Z" fill="white"/>
<path d="M105.372 17.0524H0.147339V17.6419H105.372V17.0524Z" fill="white"/>
<path d="M105.372 42.6188H75.4312V43.2083H105.372V42.6188Z" fill="white"/>
<path d="M28.7424 0.1474H28.153V79.729H28.7424V0.1474Z" fill="white"/>
<path d="M83.2888 58.3944H28.4476V58.9839H83.2888V58.3944Z" fill="white"/>
<path d="M62.781 31.2432C62.781 36.2674 55.3923 50.4353 52.6172 55.5793C52.309 56.1519 51.5951 56.3661 51.0225 56.0579C50.8196 55.9486 50.6532 55.7823 50.544 55.5793C47.769 50.4353 40.3802 36.2674 40.3802 31.2432C40.3802 25.0574 45.3948 20.0428 51.5806 20.0428C57.7665 20.0428 62.781 25.0574 62.781 31.2432Z" fill="#FF6366"/>
<path d="M55.1224 34.7862C57.0792 32.8294 57.0792 29.6568 55.1224 27.7001C53.1657 25.7433 49.9931 25.7433 48.0363 27.7001C46.0796 29.6568 46.0796 32.8294 48.0363 34.7862C49.9931 36.7429 53.1657 36.7429 55.1224 34.7862Z" fill="#E6E6E6"/>
<path d="M53.5864 59.4337C53.8483 58.3247 53.1616 57.2135 52.0526 56.9516C50.9437 56.6898 49.8324 57.3765 49.5706 58.4854C49.3087 59.5944 49.9954 60.7056 51.1044 60.9675C52.2133 61.2293 53.3246 60.5426 53.5864 59.4337Z" fill="#FF6366"/>
</svg>
